<svg width="22" height="32" viewBox="0 0 22 32" fill="none" xmlns="http://www.w3.org/2000/svg">
<path d="M10.0909 21.3333V19.4928H8.27273V17.6523H10.0909V15.7198C8.89394 15.505 7.91288 14.926 7.14773 13.9828C6.38258 13.0395 6 11.9467 6 10.7043C6 9.3086 6.48864 8.12376 7.46591 7.14982C8.44318 6.17588 9.62121 5.6889 11 5.6889C12.3788 5.6889 13.5568 6.17588 14.5341 7.14982C15.5114 8.12376 16 9.3086 16 10.7043C16 11.9467 15.6174 13.0395 14.8523 13.9828C14.0871 14.926 13.1061 15.505 11.9091 15.7198V17.6523H13.7273V19.4928H11.9091V21.3333H10.0909ZM11 13.9713C11.8788 13.9713 12.6288 13.6568 13.25 13.028C13.8712 12.3991 14.1818 11.6399 14.1818 10.7503C14.1818 9.86076 13.8712 9.10154 13.25 8.47269C12.6288 7.84385 11.8788 7.52943 11 7.52943C10.1212 7.52943 9.37121 7.84385 8.75 8.47269C8.12879 9.10154 7.81818 9.86076 7.81818 10.7503C7.81818 11.6399 8.12879 12.3991 8.75 13.028C9.37121 13.6568 10.1212 13.9713 11 13.9713Z" fill="black"/>
</svg>
