<svg width="33" height="31" viewBox="0 0 33 31" fill="none" xmlns="http://www.w3.org/2000/svg">
<path d="M27.5 5.16669V12.9167H24.75V9.59065L19.2844 14.6927C19.7198 15.2955 20.0521 15.936 20.2812 16.6141C20.5104 17.2922 20.625 17.9972 20.625 18.7292C20.625 20.7097 19.8917 22.3889 18.425 23.7667C16.9583 25.1445 15.1708 25.8334 13.0625 25.8334C10.9542 25.8334 9.16667 25.1445 7.7 23.7667C6.23333 22.3889 5.5 20.7097 5.5 18.7292C5.5 16.7486 6.23333 15.0695 7.7 13.6917C9.16667 12.3139 10.9542 11.625 13.0625 11.625C13.8188 11.625 14.5635 11.7273 15.2969 11.9318C16.0302 12.1363 16.7063 12.4538 17.325 12.8844L22.7906 7.75002H19.25V5.16669H27.5ZM13.0625 14.2084C11.7333 14.2084 10.599 14.6497 9.65938 15.5323C8.71979 16.415 8.25 17.4806 8.25 18.7292C8.25 19.9778 8.71979 21.0434 9.65938 21.9261C10.599 22.8087 11.7333 23.25 13.0625 23.25C14.3917 23.25 15.526 22.8087 16.4656 21.9261C17.4052 21.0434 17.875 19.9778 17.875 18.7292C17.875 17.4806 17.4052 16.415 16.4656 15.5323C15.526 14.6497 14.3917 14.2084 13.0625 14.2084Z" fill="black"/>
</svg>
