<svg width="25" height="24" viewBox="0 0 25 24" fill="none" xmlns="http://www.w3.org/2000/svg">
<path d="M12.1115 15.5362L17.4203 10.4221L15.9772 9.06121L12.1115 12.7846L8.24582 9.06121L6.80274 10.4221L12.1115 15.5362ZM12.1115 23.3333C10.4496 23.3333 8.88188 23.0271 7.40831 22.4146C5.93475 21.8021 4.64951 20.9676 3.55261 19.9112C2.45591 18.8546 1.58964 17.6166 0.953782 16.1971C0.317927 14.7777 0 13.2675 0 11.6667C0 10.0528 0.317927 8.53611 0.953782 7.11667C1.58964 5.69722 2.45591 4.4625 3.55261 3.4125C4.64951 2.3625 5.93475 1.53125 7.40831 0.91875C8.88188 0.30625 10.4496 0 12.1115 0C13.7869 0 15.3614 0.30625 16.835 0.91875C18.3086 1.53125 19.5904 2.3625 20.6804 3.4125C21.7705 4.4625 22.6334 5.69722 23.2693 7.11667C23.9051 8.53611 24.223 10.0528 24.223 11.6667C24.223 13.2675 23.9051 14.7777 23.2693 16.1971C22.6334 17.6166 21.7705 18.8546 20.6804 19.9112C19.5904 20.9676 18.3086 21.8021 16.835 22.4146C15.3614 23.0271 13.7869 23.3333 12.1115 23.3333ZM12.1115 21.3888C14.924 21.3888 17.3093 20.4425 19.2673 18.55C21.2253 16.6575 22.2044 14.363 22.2044 11.6667C22.2044 8.95747 21.2253 6.65982 19.2673 4.77371C17.3093 2.8876 14.924 1.94454 12.1115 1.94454C9.31235 1.94454 6.93041 2.8876 4.96572 4.77371C3.00103 6.65982 2.01869 8.95747 2.01869 11.6667C2.01869 14.363 3.00103 16.6575 4.96572 18.55C6.93041 20.4425 9.31235 21.3888 12.1115 21.3888Z" fill="#111111"/>
</svg>
