<svg width="19" height="23" viewBox="0 0 19 23" fill="none" xmlns="http://www.w3.org/2000/svg">
<path d="M8.70834 20.125V18.2083H7.12501V16.2916H8.70834V14.2791C7.66598 14.0555 6.81164 13.4526 6.14532 12.4703C5.479 11.488 5.14584 10.35 5.14584 9.05623C5.14584 7.60276 5.57136 6.3689 6.42241 5.35467C7.27345 4.34043 8.29932 3.83331 9.50001 3.83331C10.7007 3.83331 11.7266 4.34043 12.5776 5.35467C13.4287 6.3689 13.8542 7.60276 13.8542 9.05623C13.8542 10.35 13.521 11.488 12.8547 12.4703C12.1884 13.4526 11.334 14.0555 10.2917 14.2791V16.2916H11.875V18.2083H10.2917V20.125H8.70834ZM9.50001 12.4583C10.2653 12.4583 10.9184 12.1309 11.4594 11.476C12.0004 10.8212 12.2708 10.0305 12.2708 9.10415C12.2708 8.17776 12.0004 7.38713 11.4594 6.73227C10.9184 6.07741 10.2653 5.74998 9.50001 5.74998C8.73473 5.74998 8.08161 6.07741 7.54064 6.73227C6.99966 7.38713 6.72918 8.17776 6.72918 9.10415C6.72918 10.0305 6.99966 10.8212 7.54064 11.476C8.08161 12.1309 8.73473 12.4583 9.50001 12.4583Z" fill="black"/>
</svg>
