<svg width="15" height="17" viewBox="0 0 15 17" fill="none" xmlns="http://www.w3.org/2000/svg">
<path d="M7.96361 4.54941H6.56361V7.74941H3.76361V9.34941H6.56361V12.5494H7.96361V9.34941H10.7636V7.74941H7.96361V4.54941ZM7.26361 0.549408C3.40311 0.549408 0.263611 4.13741 0.263611 8.54941C0.263611 12.9614 3.40311 16.5494 7.26361 16.5494C11.1241 16.5494 14.2636 12.9614 14.2636 8.54941C14.2636 4.13741 11.1241 0.549408 7.26361 0.549408ZM7.26361 14.9494C4.17661 14.9494 1.66361 12.0774 1.66361 8.54941C1.66361 5.02141 4.17661 2.14941 7.26361 2.14941C10.3506 2.14941 12.8636 5.02141 12.8636 8.54941C12.8636 12.0774 10.3506 14.9494 7.26361 14.9494Z" fill="#E4E4E4"/>
</svg>
