<svg width="21" height="31" viewBox="0 0 21 31" fill="none" xmlns="http://www.w3.org/2000/svg">
<path d="M10.5 20.1861L9.26297 19.0114C7.82688 17.6409 6.63961 16.4586 5.70117 15.4647C4.76273 14.4707 4.01625 13.5784 3.46172 12.7877C2.90719 11.997 2.51973 11.2704 2.29934 10.6077C2.07895 9.94506 1.96875 9.26735 1.96875 8.57458C1.96875 7.15891 2.41664 5.97667 3.31242 5.02787C4.2082 4.07907 5.32437 3.60468 6.66094 3.60468C7.40031 3.60468 8.10414 3.77034 8.77242 4.10167C9.4407 4.43299 10.0166 4.89986 10.5 5.50227C10.9834 4.89986 11.5593 4.43299 12.2276 4.10167C12.8959 3.77034 13.5997 3.60468 14.3391 3.60468C15.6756 3.60468 16.7918 4.07907 17.6876 5.02787C18.5834 5.97667 19.0312 7.15891 19.0312 8.57458C19.0312 9.26735 18.9211 9.94506 18.7007 10.6077C18.4803 11.2704 18.0928 11.997 17.5383 12.7877C16.9838 13.5784 16.2373 14.4707 15.2988 15.4647C14.3604 16.4586 13.1731 17.6409 11.737 19.0114L10.5 20.1861ZM10.5 17.7463C11.865 16.4511 12.9883 15.3404 13.8698 14.4142C14.7514 13.488 15.4481 12.6823 15.96 11.997C16.4719 11.3118 16.8273 10.7018 17.0264 10.1672C17.2255 9.63256 17.325 9.10169 17.325 8.57458C17.325 7.67096 17.0406 6.91794 16.4719 6.31553C15.9031 5.71312 15.1922 5.41191 14.3391 5.41191C13.6708 5.41191 13.0523 5.61146 12.4835 6.01056C11.9148 6.40966 11.5238 6.91794 11.3105 7.53542H9.68953C9.47625 6.91794 9.08523 6.40966 8.51648 6.01056C7.94773 5.61146 7.32922 5.41191 6.66094 5.41191C5.80781 5.41191 5.09687 5.71312 4.52813 6.31553C3.95938 6.91794 3.675 7.67096 3.675 8.57458C3.675 9.10169 3.77453 9.63256 3.97359 10.1672C4.17266 10.7018 4.52813 11.3118 5.04 11.997C5.55188 12.6823 6.24859 13.488 7.13016 14.4142C8.01172 15.3404 9.135 16.4511 10.5 17.7463Z" fill="black"/>
</svg>
