<svg width="17" height="22" viewBox="0 0 17 22" fill="none" xmlns="http://www.w3.org/2000/svg">
<path d="M14.1666 3.66669V9.16669H12.75V6.80627L9.93436 10.4271C10.1587 10.8549 10.3298 11.3094 10.4479 11.7906C10.566 12.2719 10.625 12.7722 10.625 13.2917C10.625 14.6972 10.2472 15.8889 9.49165 16.8667C8.73609 17.8445 7.81526 18.3334 6.72915 18.3334C5.64304 18.3334 4.7222 17.8445 3.96665 16.8667C3.21109 15.8889 2.83331 14.6972 2.83331 13.2917C2.83331 11.8861 3.21109 10.6945 3.96665 9.71669C4.7222 8.73891 5.64304 8.25002 6.72915 8.25002C7.11873 8.25002 7.50241 8.32259 7.88019 8.46773C8.25797 8.61287 8.60623 8.83822 8.92498 9.14377L11.7406 5.50002H9.91665V3.66669H14.1666ZM6.72915 10.0834C6.04442 10.0834 5.46005 10.3965 4.97602 11.0229C4.49199 11.6493 4.24998 12.4056 4.24998 13.2917C4.24998 14.1778 4.49199 14.934 4.97602 15.5604C5.46005 16.1868 6.04442 16.5 6.72915 16.5C7.41387 16.5 7.99824 16.1868 8.48227 15.5604C8.9663 14.934 9.20831 14.1778 9.20831 13.2917C9.20831 12.4056 8.9663 11.6493 8.48227 11.0229C7.99824 10.3965 7.41387 10.0834 6.72915 10.0834Z" fill="black"/>
</svg>
