<svg width="100" height="100" viewBox="0 0 100 100" fill="none" xmlns="http://www.w3.org/2000/svg">
<path d="M24.375 71.25C27.9167 68.5417 31.875 66.4062 36.25 64.8437C40.625 63.2812 45.2084 62.5 50 62.5C54.7917 62.5 59.375 63.2812 63.75 64.8437C68.125 66.4062 72.0834 68.5417 75.625 71.25C78.0556 68.4028 79.948 65.1736 81.3021 61.5625C82.6563 57.9514 83.3334 54.0972 83.3334 50C83.3334 40.7639 80.0868 32.8993 73.5938 26.4062C67.1007 19.9132 59.2361 16.6667 50 16.6667C40.7639 16.6667 32.8993 19.9132 26.4063 26.4062C19.9132 32.8993 16.6667 40.7639 16.6667 50C16.6667 54.0972 17.3438 57.9514 18.698 61.5625C20.0521 65.1736 21.9445 68.4028 24.375 71.25ZM50 54.1667C45.9028 54.1667 42.448 52.7604 39.6355 49.9479C36.823 47.1354 35.4167 43.6805 35.4167 39.5833C35.4167 35.4861 36.823 32.0312 39.6355 29.2187C42.448 26.4062 45.9028 25 50 25C54.0973 25 57.5521 26.4062 60.3646 29.2187C63.1771 32.0312 64.5834 35.4861 64.5834 39.5833C64.5834 43.6805 63.1771 47.1354 60.3646 49.9479C57.5521 52.7604 54.0973 54.1667 50 54.1667ZM50 91.6667C44.2361 91.6667 38.8195 90.5729 33.75 88.3854C28.6806 86.1979 24.2709 83.2292 20.5209 79.4792C16.7709 75.7292 13.8021 71.3194 11.6146 66.25C9.42712 61.1805 8.33337 55.7639 8.33337 50C8.33337 44.2361 9.42712 38.8194 11.6146 33.75C13.8021 28.6806 16.7709 24.2708 20.5209 20.5208C24.2709 16.7708 28.6806 13.8021 33.75 11.6146C38.8195 9.42708 44.2361 8.33333 50 8.33333C55.7639 8.33333 61.1806 9.42708 66.25 11.6146C71.3195 13.8021 75.7292 16.7708 79.4792 20.5208C83.2292 24.2708 86.198 28.6806 88.3855 33.75C90.573 38.8194 91.6667 44.2361 91.6667 50C91.6667 55.7639 90.573 61.1805 88.3855 66.25C86.198 71.3194 83.2292 75.7292 79.4792 79.4792C75.7292 83.2292 71.3195 86.1979 66.25 88.3854C61.1806 90.5729 55.7639 91.6667 50 91.6667ZM50 83.3333C53.6806 83.3333 57.1528 82.7951 60.4167 81.7187C63.6806 80.6424 66.6667 79.0972 69.375 77.0833C66.6667 75.0694 63.6806 73.5243 60.4167 72.4479C57.1528 71.3715 53.6806 70.8333 50 70.8333C46.3195 70.8333 42.8473 71.3715 39.5834 72.4479C36.3195 73.5243 33.3334 75.0694 30.625 77.0833C33.3334 79.0972 36.3195 80.6424 39.5834 81.7187C42.8473 82.7951 46.3195 83.3333 50 83.3333ZM50 45.8333C51.8056 45.8333 53.2986 45.243 54.4792 44.0625C55.6598 42.8819 56.25 41.3889 56.25 39.5833C56.25 37.7778 55.6598 36.2847 54.4792 35.1042C53.2986 33.9236 51.8056 33.3333 50 33.3333C48.1945 33.3333 46.7014 33.9236 45.5209 35.1042C44.3403 36.2847 43.75 37.7778 43.75 39.5833C43.75 41.3889 44.3403 42.8819 45.5209 44.0625C46.7014 45.243 48.1945 45.8333 50 45.8333Z" fill="#54A09A"/>
</svg>
